HIERARCHY
ROOT Hips
{
	OFFSET 0.000000 0.000000 0.000000
	CHANNELS 6 Xposition Yposition Zposition Xrotation Yrotation Zrotation
	JOINT C_ctrl
	{
		OFFSET 0.000000 35.040482 -0.000011
		CHANNELS 3 Xrotation Yrotation Zrotation
		JOINT Bip01
		{
			OFFSET -41.537640 41.789009 -0.000007
			CHANNELS 3 Xrotation Yrotation Zrotation
			JOINT Bip01_Pelvis
			{
				OFFSET -2.462887 0.000000 0.000000
				CHANNELS 3 Xrotation Yrotation Zrotation
				JOINT BN_Tail_01
				{
					OFFSET -11.399368 7.351341 -0.000013
					CHANNELS 3 Xrotation Yrotation Zrotation
					JOINT BN_Tail_02
					{
						OFFSET -11.365196 -0.343025 0.000012
						CHANNELS 3 Xrotation Yrotation Zrotation
						JOINT BN_Tail_03
						{
							OFFSET -15.076256 -0.454979 0.000017
							CHANNELS 3 Xrotation Yrotation Zrotation
							JOINT BN_Tail_04
							{
								OFFSET -17.395691 -0.525002 0.000016
								CHANNELS 3 Xrotation Yrotation Zrotation
								JOINT BN_Tail_05
								{
									OFFSET -16.699837 -0.504005 0.000016
									CHANNELS 3 Xrotation Yrotation Zrotation
									End Site
									{
										OFFSET 0.503998 -16.699829 0.000067
									}
								}
							}
						}
					}
				}
				JOINT Bip01_Spine
				{
					OFFSET 8.297798 5.916809 -0.000020
					CHANNELS 3 Xrotation Yrotation Zrotation
					JOINT Bip01_R_Thigh
					{
						OFFSET -8.297779 -5.916794 10.541781
						CHANNELS 3 Xrotation Yrotation Zrotation
						JOINT Bip01_R_Calf
						{
							OFFSET 5.631542 -22.906792 0.862690
							CHANNELS 3 Xrotation Yrotation Zrotation
							JOINT Bip01_R_HorseLink
							{
								OFFSET -16.984341 -19.231926 -3.555767
								CHANNELS 3 Xrotation Yrotation Zrotation
								JOINT Bip01_R_Foot
								{
									OFFSET 4.290367 -24.783146 0.578056
									CHANNELS 3 Xrotation Yrotation Zrotation
									JOINT Bip01_R_Toe0
									{
										OFFSET 3.561211 -5.815116 0.760802
										CHANNELS 3 Xrotation Yrotation Zrotation
										JOINT Bip01_R_Toe0Nub
										{
											OFFSET 16.135469 0.002017 1.534789
											CHANNELS 3 Xrotation Yrotation Zrotation
											End Site
											{
												OFFSET -0.000002 16.208284 -0.000056
											}
										}
									}
								}
							}
						}
					}
					JOINT Bip01_L_Thigh
					{
						OFFSET -8.297813 -5.916832 -10.541739
						CHANNELS 3 Xrotation Yrotation Zrotation
						JOINT Bip01_L_Calf
						{
							OFFSET 5.631535 -22.906792 -0.862625
							CHANNELS 3 Xrotation Yrotation Zrotation
							JOINT Bip01_L_HorseLink
							{
								OFFSET -16.984318 -19.231949 3.555875
								CHANNELS 3 Xrotation Yrotation Zrotation
								JOINT Bip01_L_Foot
								{
									OFFSET 4.290367 -24.783169 -0.577965
									CHANNELS 3 Xrotation Yrotation Zrotation
									JOINT Bip01_L_Toe0
									{
										OFFSET 3.561245 -5.815111 -0.760799
										CHANNELS 3 Xrotation Yrotation Zrotation
										JOINT Bip01_L_Toe0Nub
										{
											OFFSET 6.574303 -0.000005 -1.538561
											CHANNELS 3 Xrotation Yrotation Zrotation
											End Site
											{
												OFFSET 0.000004 -6.751935 0.000023
											}
										}
									}
								}
							}
						}
					}
					JOINT Bip01_Spine1
					{
						OFFSET 20.556803 -4.626213 -0.000025
						CHANNELS 3 Xrotation Yrotation Zrotation
						JOINT Saddle
						{
							OFFSET 17.608810 18.174690 -0.000143
							CHANNELS 3 Xrotation Yrotation Zrotation
							End Site
							{
								OFFSET -0.000063 -0.000061 -22.448387
							}
						}
						JOINT BN_center
						{
							OFFSET 10.743275 -13.417107 -0.172041
							CHANNELS 3 Xrotation Yrotation Zrotation
							End Site
							{
								OFFSET 22.434088 0.553078 -0.579614
							}
						}
						JOINT Bip01_Spine2
						{
							OFFSET 24.765072 -2.054115 -0.000032
							CHANNELS 3 Xrotation Yrotation Zrotation
							JOINT Handle
							{
								OFFSET 63.735676 16.430748 -16.052464
								CHANNELS 3 Xrotation Yrotation Zrotation
								JOINT IK_Chain01
								{
									OFFSET -4.713058 -6.020439 0.185448
									CHANNELS 3 Xrotation Yrotation Zrotation
									End Site
									{
										OFFSET -0.000023 -0.000023 -7.648071
									}
								}
							}
							JOINT BN_hair04_01
							{
								OFFSET 1.987491 16.256981 -2.049672
								CHANNELS 3 Xrotation Yrotation Zrotation
								JOINT BN_hair04_02
								{
									OFFSET -1.318762 -3.831451 -6.174704
									CHANNELS 3 Xrotation Yrotation Zrotation
									JOINT BN_hair04_03
									{
										OFFSET -0.827490 -5.886627 -5.656666
										CHANNELS 3 Xrotation Yrotation Zrotation
										End Site
										{
											OFFSET -2.658262 5.010620 -5.929780
										}
									}
								}
							}
							JOINT Bip01_Neck
							{
								OFFSET 25.574577 9.433014 -0.000084
								CHANNELS 3 Xrotation Yrotation Zrotation
								JOINT Bip01_R_Clavicle
								{
									OFFSET -16.535652 0.011192 6.705692
									CHANNELS 3 Xrotation Yrotation Zrotation
									JOINT Bip01_R_UpperArm
									{
										OFFSET 20.272621 -12.959984 2.510816
										CHANNELS 3 Xrotation Yrotation Zrotation
										JOINT Bip01_R_Forearm
										{
											OFFSET -13.633509 -15.503704 -0.653585
											CHANNELS 3 Xrotation Yrotation Zrotation
											JOINT Bip01_R_Hand
											{
												OFFSET 2.580030 -27.804676 -1.136415
												CHANNELS 3 Xrotation Yrotation Zrotation
												JOINT Bip01_R_Finger0
												{
													OFFSET -0.281744 -19.659061 -0.398649
													CHANNELS 3 Xrotation Yrotation Zrotation
													JOINT Bip01_Xtra02
													{
														OFFSET 4.152210 -5.712314 0.433813
														CHANNELS 3 Xrotation Yrotation Zrotation
														JOINT Bip01_Xtra02Nub
														{
															OFFSET 15.457960 0.041654 0.507982
															CHANNELS 3 Xrotation Yrotation Zrotation
															End Site
															{
																OFFSET -15.421730 -0.157725 -1.163459
															}
														}
													}
													JOINT Bip01_R_Finger0Nub
													{
														OFFSET 8.362326 -9.718440 -0.143142
														CHANNELS 3 Xrotation Yrotation Zrotation
														End Site
														{
															OFFSET -1.213036 -0.198171 9.872291
														}
													}
												}
											}
										}
									}
								}
								JOINT Bip01_L_Clavicle
								{
									OFFSET -16.535673 0.011162 -6.705583
									CHANNELS 3 Xrotation Yrotation Zrotation
									JOINT Bip01_L_UpperArm
									{
										OFFSET 20.272615 -12.959999 -2.510836
										CHANNELS 3 Xrotation Yrotation Zrotation
										JOINT Bip01_L_Forearm
										{
											OFFSET -13.633495 -15.503681 0.653678
											CHANNELS 3 Xrotation Yrotation Zrotation
											JOINT Bip01_L_Hand
											{
												OFFSET 2.579988 -27.804686 1.136487
												CHANNELS 3 Xrotation Yrotation Zrotation
												JOINT Bip01_L_Finger0
												{
													OFFSET -0.281765 -19.659058 0.398696
													CHANNELS 3 Xrotation Yrotation Zrotation
													JOINT Bip01_Xtra01
													{
														OFFSET 4.083549 -5.738758 -0.666714
														CHANNELS 3 Xrotation Yrotation Zrotation
														JOINT Bip01_Xtra01Nub
														{
															OFFSET 6.758158 -0.395525 -0.023239
															CHANNELS 3 Xrotation Yrotation Zrotation
															End Site
															{
																OFFSET 6.764923 -0.254147 -0.029908
															}
														}
													}
													JOINT Bip01_L_Finger0Nub
													{
														OFFSET -0.012636 -9.629153 0.045740
														CHANNELS 3 Xrotation Yrotation Zrotation
														End Site
														{
															OFFSET 0.988407 0.004791 8.293357
														}
													}
												}
											}
										}
									}
								}
								JOINT BN_hair03_01
								{
									OFFSET -5.894140 16.270622 -2.498433
									CHANNELS 3 Xrotation Yrotation Zrotation
									JOINT BN_hair03_02
									{
										OFFSET -0.189278 -7.800507 -6.219162
										CHANNELS 3 Xrotation Yrotation Zrotation
										JOINT BN_hair03_03
										{
											OFFSET 0.612345 -10.844475 -3.370718
											CHANNELS 3 Xrotation Yrotation Zrotation
											End Site
											{
												OFFSET -2.273296 2.862007 -10.769416
											}
										}
									}
								}
								JOINT Bip01_Neck1
								{
									OFFSET 9.383755 11.908699 -0.000007
									CHANNELS 3 Xrotation Yrotation Zrotation
									JOINT BN_hair02_01
									{
										OFFSET 9.126320 18.808022 -1.420810
										CHANNELS 3 Xrotation Yrotation Zrotation
										JOINT BN_hair02_02
										{
											OFFSET 0.393478 -5.181091 -5.248574
											CHANNELS 3 Xrotation Yrotation Zrotation
											JOINT BN_hair02_03
											{
												OFFSET 0.762280 -8.167076 -0.230047
												CHANNELS 3 Xrotation Yrotation Zrotation
												End Site
												{
													OFFSET -0.025837 -1.251419 -8.109770
												}
											}
										}
									}
									JOINT Bip01_Head
									{
										OFFSET 14.266129 10.475403 -0.000008
										CHANNELS 3 Xrotation Yrotation Zrotation
										JOINT BN_Reins_01
										{
											OFFSET 18.547455 -15.740112 -0.000035
											CHANNELS 3 Xrotation Yrotation Zrotation
											JOINT BN_Reins_02
											{
												OFFSET -5.372810 -5.884506 0.000028
												CHANNELS 3 Xrotation Yrotation Zrotation
												JOINT BN_Reins_03
												{
													OFFSET -6.395866 -15.947449 0.000070
													CHANNELS 3 Xrotation Yrotation Zrotation
													JOINT BN_Halter_R_01
													{
														OFFSET -1.234055 -3.096100 7.096737
														CHANNELS 3 Xrotation Yrotation Zrotation
														End Site
														{
															OFFSET 10.514435 -4.176861 -0.000004
														}
													}
													JOINT BN_Halter_L_01
													{
														OFFSET -1.234062 -3.096146 -7.096726
														CHANNELS 3 Xrotation Yrotation Zrotation
														End Site
														{
															OFFSET -10.514435 4.176865 -0.000000
														}
													}
													JOINT BN_Reins_04
													{
														OFFSET -6.737644 -16.971684 0.000074
														CHANNELS 3 Xrotation Yrotation Zrotation
														JOINT BN_Halter_R_02
														{
															OFFSET -4.688869 -11.781956 7.096771
															CHANNELS 3 Xrotation Yrotation Zrotation
															End Site
															{
																OFFSET 14.669624 -5.827511 -0.000006
															}
														}
														JOINT BN_Halter_L_02
														{
															OFFSET -4.688892 -11.782017 -7.096693
															CHANNELS 3 Xrotation Yrotation Zrotation
															End Site
															{
																OFFSET -14.669624 5.827507 -0.000002
															}
														}
														JOINT BN_Reins_05
														{
															OFFSET -6.822578 -16.971161 0.000074
															CHANNELS 3 Xrotation Yrotation Zrotation
															JOINT BN_Reins_06
															{
																OFFSET -6.140354 -15.095148 0.000066
																CHANNELS 3 Xrotation Yrotation Zrotation
																End Site
																{
																	OFFSET -15.095150 6.140352 -0.000002
																}
															}
														}
													}
												}
											}
										}
										JOINT BN_hair01_01
										{
											OFFSET 8.957344 8.870956 0.112121
											CHANNELS 3 Xrotation Yrotation Zrotation
											JOINT BN_hair01_02
											{
												OFFSET 6.002075 -2.962952 -3.121264
												CHANNELS 3 Xrotation Yrotation Zrotation
												End Site
												{
													OFFSET 5.917702 3.813591 -2.232396
												}
											}
										}
										JOINT BN_Eyebrow_R
										{
											OFFSET 11.795959 -0.430496 4.449781
											CHANNELS 3 Xrotation Yrotation Zrotation
											JOINT Bip01_Xtra06Nub
											{
												OFFSET 2.936661 -0.262573 3.246701
												CHANNELS 3 Xrotation Yrotation Zrotation
												End Site
												{
													OFFSET 2.768745 0.208199 3.394807
												}
											}
										}
										JOINT BN_Eyebrow_L
										{
											OFFSET 11.586395 -0.445618 -4.441728
											CHANNELS 3 Xrotation Yrotation Zrotation
											JOINT Bip01_Xtra05Nub
											{
												OFFSET 3.244698 -0.349442 -4.416700
												CHANNELS 3 Xrotation Yrotation Zrotation
												End Site
												{
													OFFSET 3.053162 0.072495 -4.564033
												}
											}
										}
										JOINT Bip01_R_Ear_01
										{
											OFFSET 7.142960 7.567184 4.311657
											CHANNELS 3 Xrotation Yrotation Zrotation
											JOINT Bip01_Xtra04Nub
											{
												OFFSET 9.464531 9.264214 1.682953
												CHANNELS 3 Xrotation Yrotation Zrotation
												End Site
												{
													OFFSET 8.448181 10.159340 1.910823
												}
											}
										}
										JOINT Bip01__L_Ear_01
										{
											OFFSET 7.214943 7.717056 -4.356771
											CHANNELS 3 Xrotation Yrotation Zrotation
											JOINT Bip01_Xtra03Nub
											{
												OFFSET 9.230225 8.944366 -2.322746
												CHANNELS 3 Xrotation Yrotation Zrotation
												End Site
												{
													OFFSET 8.170288 9.841324 -2.643566
												}
											}
										}
										JOINT Bip01_Jaw
										{
											OFFSET 9.196068 -4.110695 -0.000013
											CHANNELS 3 Xrotation Yrotation Zrotation
											JOINT Bip01_Ponytail1Nub
											{
												OFFSET 10.976463 -21.082108 -0.000053
												CHANNELS 3 Xrotation Yrotation Zrotation
												End Site
												{
													OFFSET 11.247093 -20.938980 0.000113
												}
											}
										}
										JOINT Bip01_HeadNub
										{
											OFFSET 29.954575 -18.249489 -0.000063
											CHANNELS 3 Xrotation Yrotation Zrotation
											End Site
											{
												OFFSET -9.198448 -13.366348 0.000168
											}
										}
									}
								}
							}
						}
					}
				}
			}
		}
	}
}
MOTION
Frames: 4
Frame Time: 0.033333
0.000000 0.000000 0.000000 0.000008 0.000000 -0.000000 -0.000000 0.000000 -0.000000 0.000072 -0.000013 -3.726100 -0.731651 -2.605314 -1.546433 -0.829366 9.706222 9.356634 0.000018 0.000045 14.150520 0.005400 -0.018966 14.138004 0.000015 0.000056 14.150600 0.102748 -0.758897 14.112673 1.742197 2.548194 9.184865 5.261229 9.006271 -18.862186 6.769143 -1.798804 -36.005113 -1.069553 -0.109745 5.447303 7.258774 -6.768613 -52.202456 0.319110 0.121204 -1.533689 -0.000074 -0.000374 -0.000044 -6.327413 -10.640612 -5.683208 -6.786519 1.809868 -36.108454 6.372771 2.397898 34.932057 -8.178240 12.693071 -82.729533 -0.462769 -0.173828 -2.218643 -0.007978 0.000198 -0.038737 -1.951187 0.439270 -10.769519 0.917516 -0.020775 6.784391 1.155750 -0.143355 -1.006142 -0.000003 -0.000003 -2.645287 0.000078 -0.000112 -0.000056 -0.000042 -0.027854 0.027951 1.881441 1.572103 1.462649 6.612607 11.512008 -15.509071 4.975589 5.266137 -6.968506 1.064119 -0.006191 15.666576 -1.875745 -2.465485 -33.550531 0.817320 3.258768 20.399828 0.155140 0.767063 -19.171241 4.007551 3.487842 3.791720 -8.960796 -1.300537 16.123797 -1.353293 3.861741 5.945711 -0.802207 0.160632 -0.479922 -0.804178 0.123485 -0.482676 -0.658323 2.223303 -27.859778 -0.129206 -2.961027 5.094791 -0.053157 -0.426650 -10.497007 -3.769607 -1.154320 -52.740402 -5.648625 0.007488 -61.126027 -1.098359 6.839202 2.000560 0.028222 0.072067 2.451896 -0.000913 0.100618 2.451956 4.851778 -0.312032 0.401848 -1.389568 3.407428 -10.646852 -0.416213 1.957073 -6.728412 0.000001 0.000001 -1.680880 1.084238 0.107289 -0.021902 3.662143 0.106481 -6.884445 5.134416 0.133151 -1.514055 -0.090021 0.374925 -14.853734 -0.000005 -0.000240 -21.499115 0.112582 -0.469065 8.150069 -0.000106 -0.000108 -36.062904 -0.000013 -0.000018 1.314169 0.000019 -0.000022 1.314013 -0.000174 -0.000142 -56.074149 -23.901224 -11.934635 -2.559225 34.949238 16.671927 -5.206567 -0.000097 -0.000117 -38.129002 0.000017 0.000041 -0.000005 2.392878 6.620327 -0.300175 2.377909 -0.566461 5.313734 0.000061 -0.000078 0.000056 0.024226 -0.030066 11.786585 0.000047 -0.000045 0.000037 0.023227 -0.032292 11.715970 0.885432 1.335094 -11.105637 0.050272 0.015101 11.755976 -1.290228 -1.929240 -11.270289 0.050126 0.014769 11.743107 -0.000036 0.000031 -0.055779 -0.004524 -0.052598 11.750673 0.000056 -0.000026 11.750680 
0.000000 0.000000 0.000000 0.000008 0.000000 -0.000000 -0.000000 0.000000 -0.000000 0.515618 -0.024235 -2.690446 -0.862934 -2.745761 -1.454536 -0.829366 9.706220 9.356633 -0.255111 1.073516 11.649774 0.146112 -0.494035 14.718182 0.084613 -0.311397 13.817203 -0.026474 -0.286564 13.962599 1.863748 2.688429 8.487774 3.235524 7.046888 -10.441237 9.048396 -3.737405 -51.088688 -8.259563 -4.265158 48.290995 9.537620 -7.727925 -69.095655 0.210773 0.123668 -1.014968 -0.000074 -0.000373 -0.000045 -5.546193 -10.363852 1.894834 -5.646000 1.160550 -29.488061 8.675258 4.818466 51.759061 -8.284768 8.466408 -72.123656 -0.488894 -0.172774 -2.342876 -0.007977 0.000200 -0.038736 -1.952328 0.450794 -13.616220 0.427595 -0.061535 9.189619 0.779535 -0.140912 -2.107649 0.230939 -0.012967 -2.374911 0.000078 -0.000112 -0.000056 -0.000028 -0.055831 0.027951 1.881438 1.572102 1.462649 6.612610 11.512012 -15.509075 4.975591 5.266139 -6.968506 1.514165 0.263629 17.862201 -3.260572 -3.720489 -44.673880 1.174220 6.619909 29.845314 0.371857 1.194649 -30.882629 1.900744 1.360566 11.990909 -4.297522 4.029948 8.820186 -1.353255 3.861728 5.945709 -0.802235 0.160631 -0.479911 -0.804178 0.123485 -0.482674 -1.375522 1.670460 -26.898443 -0.127991 -2.531507 5.669775 -0.005800 -0.105495 -2.576269 -4.056740 -0.133570 -79.154113 -5.569901 -1.594486 -61.148293 -1.098837 6.839184 2.000646 0.028250 0.072068 2.451894 -0.000902 0.100618 2.451964 4.232127 -0.120014 1.708707 -0.990983 2.774263 -8.778395 -0.303442 1.749320 -6.050198 0.365653 0.514682 0.472791 1.084241 0.107290 -0.021923 4.909669 -0.112011 -0.301312 3.875060 -0.417943 -4.430315 -0.554539 0.555414 -14.263915 -0.000027 -0.000277 -26.575238 0.336257 -1.153568 12.526407 -0.000108 -0.000109 -36.631237 -0.000011 -0.000014 1.314170 0.000019 -0.000022 1.314013 -0.000178 -0.000143 -56.957726 -23.901222 -11.934632 -2.559232 34.949234 16.671923 -5.206566 -0.000099 -0.000119 -38.683511 0.000008 0.000045 0.000007 2.392845 6.620335 -0.300171 2.373951 -3.307878 11.673616 0.000063 -0.000079 0.000052 0.024240 -0.030060 11.786606 0.000046 -0.000043 0.000033 0.023242 -0.032285 11.715942 0.882887 1.426493 -11.579249 0.050287 0.015125 11.755966 -1.285283 -2.061042 -11.594556 0.050139 0.014793 11.743105 -0.000036 0.000018 -1.243660 -0.004507 -0.052619 11.750670 0.000055 -0.000027 11.750675 
0.000000 0.000000 0.000000 0.000008 0.000000 -0.000000 -0.000000 0.000000 -0.000000 0.921966 -0.016819 -1.043785 -0.984160 -2.875039 -1.369825 -0.829366 9.706220 9.356633 -0.504646 2.207033 11.161109 0.446314 -1.337323 16.712073 0.267773 -1.022968 13.216933 -0.151970 0.176933 13.816481 1.785029 2.834447 7.877839 2.899974 9.612296 0.752150 9.513632 -4.285734 -54.695557 -9.205338 -5.642202 56.669280 7.730225 -8.934820 -60.178550 0.153293 0.124574 -0.738955 -0.000075 -0.000372 -0.000050 -4.693350 -9.961893 9.182976 -3.556868 0.371143 -18.184837 9.717173 6.623267 62.213816 -8.889755 3.168790 -56.790383 -0.514544 -0.171682 -2.464764 -0.007978 0.000201 -0.038737 -1.580386 0.355819 -16.235739 -0.160024 -0.117897 10.684271 -0.332882 -0.064777 -4.265975 0.532738 -0.044134 -2.812795 0.000078 -0.000112 -0.000056 -0.000015 -0.069846 0.027952 1.881439 1.572103 1.462650 6.612612 11.512013 -15.509075 4.975581 5.266136 -6.968508 1.759875 0.507507 19.036973 -3.397985 -3.472593 -43.289524 1.254771 6.557807 25.401515 0.181836 0.833495 -20.917244 2.839154 1.875280 -14.995477 2.614931 4.447196 -32.075709 -1.353246 3.861709 5.945710 -0.802269 0.160634 -0.479881 -0.804177 0.123485 -0.482676 -1.896688 1.039898 -24.677740 -0.293727 -1.993641 8.637276 -0.007943 0.283215 6.911228 -4.213754 0.865638 -100.623351 -4.803891 -2.851502 -59.340451 -1.098812 6.839184 2.000624 0.028277 0.072068 2.451887 -0.000933 0.100619 2.451942 3.552143 0.126693 3.500013 -0.827106 2.517755 -8.003011 0.021302 1.181510 -4.171525 0.653687 0.944620 2.877402 1.084214 0.107267 -0.021923 7.271349 -0.430858 11.149761 3.047782 -1.022264 -8.088058 -1.093929 0.883390 -14.005422 -0.000076 -0.000358 -35.742981 0.800216 -1.715906 22.411751 -0.000110 -0.000111 -37.301251 -0.000008 -0.000008 1.314172 0.000019 -0.000022 1.314011 -0.000182 -0.000143 -57.998900 -23.901229 -11.934633 -2.559227 34.949238 16.671925 -5.206564 -0.000101 -0.000120 -39.336791 0.000033 0.000035 -0.000048 2.392832 6.620360 -0.300172 3.900985 -5.018411 17.418184 0.000061 -0.000075 0.000053 0.024260 -0.030060 11.786624 0.000046 -0.000041 0.000034 0.023255 -0.032281 11.715923 0.878974 1.518950 -12.009387 0.050298 0.015150 11.755973 -1.282363 -2.270832 -11.891941 0.050153 0.014817 11.743102 -0.000037 0.000006 -2.373622 -0.004489 -0.052639 11.750674 0.000056 -0.000027 11.750675 
0.000000 0.000000 0.000000 0.000008 0.000000 -0.000000 -0.000000 0.000000 -0.000000 0.693309 0.001691 0.140736 -1.099641 -2.997185 -1.289741 -0.829381 9.706214 9.356634 -0.564110 3.228597 8.192788 0.723064 -1.753213 20.671752 0.478102 -1.859589 12.894595 -0.226037 0.509387 13.248873 1.473906 2.993183 7.571637 2.556989 11.780943 10.719517 9.057767 -3.747785 -51.158841 -9.140706 -5.533039 56.033769 4.416146 -8.673580 -47.641956 0.095356 0.125195 -0.460161 -0.000074 -0.000374 -0.000047 -3.523772 -9.699167 14.387314 -2.345573 0.115587 -11.916097 8.756799 4.935613 52.474240 -8.151564 1.200253 -50.998646 -0.561803 -0.171196 -2.517141 -0.007978 0.000200 -0.038737 -0.829684 0.184985 -16.532352 -0.275617 -0.093059 10.031185 -0.960661 0.031916 -5.954713 0.762449 -0.071520 -4.221036 0.000078 -0.000112 -0.000056 0.000006 -0.125828 0.027953 1.881449 1.572102 1.462655 6.612610 11.512010 -15.509071 4.975578 5.266142 -6.968510 1.426872 0.501451 19.755653 -2.686483 -2.889933 -39.169899 1.258079 5.601108 17.624350 0.024537 0.271173 -6.642420 4.335524 1.837021 -47.180949 7.027119 0.575114 -69.302098 -1.353280 3.861693 5.945746 -0.802316 0.160633 -0.479919 -0.804178 0.123487 -0.482677 -1.674845 0.444996 -22.164785 -0.513216 -1.147460 13.235559 -0.084961 0.706503 17.415534 -4.211495 1.157335 -108.901964 -3.986965 -3.748064 -55.035011 -1.098813 6.839184 2.000625 0.028331 0.072068 2.451890 -0.000934 0.100619 2.451943 2.999642 0.190228 4.422137 -0.763635 2.418931 -7.701452 0.367925 0.619195 -2.271296 0.564838 0.834471 3.808508 1.084221 0.107270 -0.021912 8.558805 -0.541467 16.062298 2.735813 -1.310012 -9.915935 -1.221599 0.898683 -15.842767 -0.000103 -0.000398 -40.728336 0.900245 -1.477378 30.050623 -0.000113 -0.000112 -38.054413 -0.000004 0.000003 1.314167 0.000019 -0.000022 1.314011 -0.000187 -0.000144 -59.170270 -23.901226 -11.934629 -2.559234 34.949245 16.671925 -5.206572 -0.000103 -0.000122 -40.072173 0.000033 0.000035 -0.000050 2.392802 6.620376 -0.300172 5.386060 -6.796093 22.744649 0.000062 -0.000079 0.000053 0.024292 -0.030037 11.786667 0.000045 -0.000046 0.000034 0.023284 -0.032266 11.715879 0.873734 1.614296 -12.409159 0.050325 0.015197 11.755983 -1.281710 -2.555013 -12.171120 0.050177 0.014864 11.743091 -0.000039 0.000000 -3.014734 -0.004454 -0.052682 11.750678 0.000056 -0.000026 11.750671 
